<svg width="9" height="8" viewBox="0 0 9 8" fill="none" xmlns="http://www.w3.org/2000/svg">
<path d="M4.17249 0.909668V0.909919C4.16844 0.916906 3.33213 2.3595 2.28818 4.12081C1.24168 5.88641 0.377808 7.29995 0.377808 7.29995L3.34078 7.28695L3.34098 7.28692L3.34036 7.28922C4.77902 7.26135 6.07675 6.31548 6.45971 4.88629C6.57941 4.43953 6.59748 3.9898 6.52805 3.56C6.33773 2.2944 5.4032 1.2651 4.17249 0.909668Z" fill="black"/>
<path d="M5.80994 0V0.000250894C5.80589 0.00723783 4.96958 1.44983 3.92563 3.21114C2.87913 4.97674 2.01526 6.39028 2.01526 6.39028L4.97823 6.37728L4.97843 6.37725L4.97781 6.37955C6.41648 6.35168 7.7142 5.40581 8.09716 3.97662C8.21687 3.52986 8.23493 3.08013 8.1655 2.65033C7.97518 1.38473 7.04065 0.355434 5.80994 0Z" fill="#10F2C5"/>
</svg>
